<?xml version="1.0" standalone="no"?>
<!DOCTYPE svg PUBLIC "-//W3C//DTD SVG 20010904//EN"
 "http://www.w3.org/TR/2001/REC-SVG-20010904/DTD/svg10.dtd">
<svg version="1.0" xmlns="http://www.w3.org/2000/svg"
 width="310.000000pt" height="264.000000pt" viewBox="0 0 310.000000 264.000000"
 preserveAspectRatio="xMidYMid meet">

<g transform="translate(0.000000,264.000000) scale(0.100000,-0.100000)"
fill="#000000" stroke="none">
<path d="M0 1320 l0 -1320 1550 0 1550 0 0 1320 0 1320 -1550 0 -1550 0 0
-1320z m2934 1108 c14 -20 16 -141 16 -1100 0 -1065 0 -1078 -20 -1098 -20
-20 -33 -20 -1384 -20 l-1365 0 -15 22 c-14 20 -16 141 -16 1102 0 990 1 1081
17 1098 15 17 71 18 1384 18 l1368 0 15 -22z"/>
<path d="M200 1330 l0 -1070 1350 0 1350 0 0 1070 0 1070 -1350 0 -1350 0 0
-1070z m1030 823 c34 -33 87 -139 371 -748 343 -735 359 -774 329 -830 -15
-28 -50 -45 -96 -45 -25 0 -44 9 -69 33 -36 33 -48 57 -457 947 -78 168 -144
308 -147 312 -4 5 -90 -173 -190 -395 -375 -822 -374 -819 -412 -859 -30 -32
-43 -38 -76 -38 -51 0 -90 29 -99 75 -7 41 12 104 72 230 23 50 89 194 147
320 425 930 446 974 487 1008 47 40 91 37 140 -10z m1362 -83 c41 -50 35 -107
-16 -155 -21 -20 -178 -97 -460 -225 -236 -107 -432 -196 -436 -198 -7 -3
-104 198 -98 203 6 5 822 377 858 391 52 20 129 12 152 -16z m-1288 -794 c58
-126 106 -233 106 -237 0 -10 -380 168 -399 186 -13 12 -8 29 34 122 27 59 53
114 59 121 14 19 80 52 87 44 4 -4 54 -110 113 -236z m646 -243 c601 -274 652
-302 665 -363 10 -45 -12 -98 -47 -116 -52 -27 -102 -13 -333 94 l-217 100
-45 98 c-25 55 -58 127 -74 162 -16 35 -25 61 -21 59 4 -3 36 -18 72 -34z"/>
</g>
</svg>
